<?xml version="1.0" standalone="no"?><!DOCTYPE svg PUBLIC "-//W3C//DTD SVG 1.1//EN" "http://www.w3.org/Graphics/SVG/1.1/DTD/svg11.dtd"><svg xmlns:xlink="http://www.w3.org/1999/xlink" version="1.1" style="font-family:'lucida grande', 'lucida sans unicode', arial, helvetica, sans-serif;font-size:12px;" xmlns="http://www.w3.org/2000/svg" width="600" height="400"><desc>Created with Highcharts 4.2.7</desc><defs><clipPath id="highcharts-107"><rect x="1" y="1" width="557" height="281"></rect></clipPath></defs><rect x="31" y="42" width="559" height="283" fill="#ffffff"></rect><path fill="rgb(255, 255, 255)" fill-opacity=" .5" d="M 31 325.5 L 590 325.5 590 254.5 31 254.5"></path><path fill="rgb(255, 255, 255)" fill-opacity=" .5" d="M 31 184.5 L 590 184.5 590 113.5 31 113.5"></path><g class="highcharts-grid"></g><g class="highcharts-grid"><path fill="none" d="M 31 325.5 L 590 325.5" stroke="#C0C0C0" stroke-width="1" opacity="1"></path><path fill="none" d="M 31 254.5 L 590 254.5" stroke="#C0C0C0" stroke-width="1" opacity="1"></path><path fill="none" d="M 31 184.5 L 590 184.5" stroke="#C0C0C0" stroke-width="1" opacity="1"></path><path fill="none" d="M 31 113.5 L 590 113.5" stroke="#C0C0C0" stroke-width="1" opacity="1"></path><path fill="none" d="M 31 41.5 L 590 41.5" stroke="#C0C0C0" stroke-width="1" opacity="1"></path></g><rect x="31" y="42" width="559" height="283" stroke="#026FC1" stroke-width="2" fill="none"></rect><g class="highcharts-axis"><path fill="none" d="M 170.5 325 L 170.5 335" stroke="#C0D0E0" stroke-width="1" opacity="1"></path><path fill="none" d="M 310.5 325 L 310.5 335" stroke="#C0D0E0" stroke-width="1" opacity="1"></path><path fill="none" d="M 449.5 325 L 449.5 335" stroke="#C0D0E0" stroke-width="1" opacity="1"></path><path fill="none" d="M 590.5 325 L 590.5 335" stroke="#C0D0E0" stroke-width="1" opacity="1"></path><path fill="none" d="M 30.5 325 L 30.5 335" stroke="#C0D0E0" stroke-width="1" opacity="1"></path><path fill="none" d="M 31 325.5 L 590 325.5" stroke="#C0D0E0" stroke-width="1"></path></g><g class="highcharts-axis"><path fill="none" d="M 31 325.5 L 21 325.5" stroke="#C0D0E0" stroke-width="1" opacity="1"></path><path fill="none" d="M 31 254.5 L 21 254.5" stroke="#C0D0E0" stroke-width="1" opacity="1"></path><path fill="none" d="M 31 184.5 L 21 184.5" stroke="#C0D0E0" stroke-width="1" opacity="1"></path><path fill="none" d="M 31 113.5 L 21 113.5" stroke="#C0D0E0" stroke-width="1" opacity="1"></path><path fill="none" d="M 31 41.5 L 21 41.5" stroke="#C0D0E0" stroke-width="1" opacity="1"></path></g><g class="highcharts-series-group"><g class="highcharts-series highcharts-series-0" transform="translate(31,42) scale(1 1)" clip-path="url(#highcharts-107)"><rect x="31.5" y="172.5" width="34" height="111" stroke="#FFFFFF" stroke-width="1" fill="#15eaf4" rx="0" ry="0"></rect><rect x="171.5" y="141.5" width="34" height="142" stroke="#FFFFFF" stroke-width="1" fill="#15eaf4" rx="0" ry="0"></rect><rect x="311.5" y="79.5" width="34" height="204" stroke="#FFFFFF" stroke-width="1" fill="#15eaf4" rx="0" ry="0"></rect><rect x="450.5" y="61.5" width="34" height="222" stroke="#FFFFFF" stroke-width="1" fill="#15eaf4" rx="0" ry="0"></rect></g><g class="highcharts-markers highcharts-series-0" transform="translate(31,42) scale(1 1)" clip-path="none"></g><g class="highcharts-series highcharts-series-1" transform="translate(31,42) scale(1 1)" clip-path="url(#highcharts-107)"><rect x="73.5" y="273.5" width="34" height="10" stroke="#FFFFFF" stroke-width="1" fill="#1b87ed" rx="0" ry="0"></rect><rect x="213.5" y="270.5" width="34" height="13" stroke="#FFFFFF" stroke-width="1" fill="#1b87ed" rx="0" ry="0"></rect><rect x="353.5" y="269.5" width="34" height="14" stroke="#FFFFFF" stroke-width="1" fill="#1b87ed" rx="0" ry="0"></rect><rect x="492.5" y="269.5" width="34" height="14" stroke="#FFFFFF" stroke-width="1" fill="#1b87ed" rx="0" ry="0"></rect></g><g class="highcharts-markers highcharts-series-1" transform="translate(31,42) scale(1 1)" clip-path="none"></g></g><text x="300" text-anchor="middle" class="highcharts-title" style="color:#000000;font-size:16px;font-family:'arial', sans-serif;text-transform:none;fill:#000000;width:536px;" y="22"><tspan>All Values are in lakhs</tspan></text><g class="highcharts-data-labels highcharts-series-0" transform="translate(31,42) scale(1 1)" opacity="1"><g style="cursor:pointer;" transform="translate(30,147)"><text x="5" style="font-size:14px;font-weight:bold;font-family:'arial', sans-serif;color:#000000;text-shadow:none;fill:#000000;text-rendering:geometricprecision;" y="19"><tspan>3.14</tspan></text></g><g style="cursor:pointer;" transform="translate(170,116)"><text x="5" style="font-size:14px;font-weight:bold;font-family:'arial', sans-serif;color:#000000;text-shadow:none;fill:#000000;text-rendering:geometricprecision;" y="19"><tspan>4.01</tspan></text></g><g style="cursor:pointer;" transform="translate(310,54)"><text x="5" style="font-size:14px;font-weight:bold;font-family:'arial', sans-serif;color:#000000;text-shadow:none;fill:#000000;text-rendering:geometricprecision;" y="19"><tspan>5.77</tspan></text></g><g style="cursor:pointer;" transform="translate(449,36)"><text x="5" style="font-size:14px;font-weight:bold;font-family:'arial', sans-serif;color:#000000;text-shadow:none;fill:#000000;text-rendering:geometricprecision;" y="19"><tspan>6.28</tspan></text></g></g><g class="highcharts-data-labels highcharts-series-1" transform="translate(31,42) scale(1 1)" opacity="1"><g style="cursor:pointer;" transform="translate(72,248)"><text x="5" style="font-size:14px;font-weight:bold;font-family:'arial', sans-serif;color:#000000;text-shadow:none;fill:#000000;text-rendering:geometricprecision;" y="19"><tspan>0.29</tspan></text></g><g style="cursor:pointer;" transform="translate(212,245)"><text x="5" style="font-size:14px;font-weight:bold;font-family:'arial', sans-serif;color:#000000;text-shadow:none;fill:#000000;text-rendering:geometricprecision;" y="19"><tspan>0.36</tspan></text></g><g style="cursor:pointer;" transform="translate(352,244)"><text x="5" style="font-size:14px;font-weight:bold;font-family:'arial', sans-serif;color:#000000;text-shadow:none;fill:#000000;text-rendering:geometricprecision;" y="19"><tspan>0.39</tspan></text></g><g style="cursor:pointer;" transform="translate(491,244)"><text x="5" style="font-size:14px;font-weight:bold;font-family:'arial', sans-serif;color:#000000;text-shadow:none;fill:#000000;text-rendering:geometricprecision;" y="19"><tspan>0.39</tspan></text></g></g><g class="highcharts-legend" transform="translate(221,356)"><g><g><g class="highcharts-legend-item" transform="translate(8,3)"><text x="21" style="color:#333;font-size:9pt;font-weight:normal;cursor:pointer;font-family:'lucida grande','lucida sans unicode',arial,helvetica,sans-serif;text-transform:none;fill:#333;" text-anchor="start" y="15">Revenue</text><rect x="0" y="4" width="16" height="12" fill="#15eaf4"></rect></g><g class="highcharts-legend-item" transform="translate(98.078125,3)"><text x="21" y="15" style="color:#333;font-size:9pt;font-weight:normal;cursor:pointer;font-family:'lucida grande','lucida sans unicode',arial,helvetica,sans-serif;text-transform:none;fill:#333;" text-anchor="start">Profit</text><rect x="0" y="4" width="16" height="12" fill="#1b87ed"></rect></g></g></g></g><g class="highcharts-axis-labels highcharts-xaxis-labels"><text x="100.875" style="color:#000000;cursor:default;font-size:10px;font-family:'arial', sans-serif;text-transform:none;font-weight:normal;fill:#000000;" text-anchor="middle" transform="translate(0,0)" y="343" opacity="1">2017</text><text x="240.625" style="color:#000000;cursor:default;font-size:10px;font-family:'arial', sans-serif;text-transform:none;font-weight:normal;fill:#000000;" text-anchor="middle" transform="translate(0,0)" y="343" opacity="1">2018</text><text x="380.375" style="color:#000000;cursor:default;font-size:10px;font-family:'arial', sans-serif;text-transform:none;font-weight:normal;fill:#000000;" text-anchor="middle" transform="translate(0,0)" y="343" opacity="1">2019</text><text x="520.125" style="color:#000000;cursor:default;font-size:10px;font-family:'arial', sans-serif;text-transform:none;font-weight:normal;fill:#000000;" text-anchor="middle" transform="translate(0,0)" y="343" opacity="1">2020</text></g><g class="highcharts-axis-labels highcharts-yaxis-labels"><text x="16" style="color:#000000;cursor:default;font-size:10px;font-family:'arial', sans-serif;text-transform:none;font-weight:normal;fill:#000000;width:188px;text-overflow:clip;" text-anchor="end" transform="translate(0,0)" y="330" opacity="1"><tspan>0</tspan></text><text x="16" style="color:#000000;cursor:default;font-size:10px;font-family:'arial', sans-serif;text-transform:none;font-weight:normal;fill:#000000;width:188px;text-overflow:clip;" text-anchor="end" transform="translate(0,0)" y="259" opacity="1"><tspan>2</tspan></text><text x="16" style="color:#000000;cursor:default;font-size:10px;font-family:'arial', sans-serif;text-transform:none;font-weight:normal;fill:#000000;width:188px;text-overflow:clip;" text-anchor="end" transform="translate(0,0)" y="188" opacity="1"><tspan>4</tspan></text><text x="16" style="color:#000000;cursor:default;font-size:10px;font-family:'arial', sans-serif;text-transform:none;font-weight:normal;fill:#000000;width:188px;text-overflow:clip;" text-anchor="end" transform="translate(0,0)" y="117" opacity="1"><tspan>6</tspan></text><text x="16" style="color:#000000;cursor:default;font-size:10px;font-family:'arial', sans-serif;text-transform:none;font-weight:normal;fill:#000000;width:188px;text-overflow:clip;" text-anchor="end" transform="translate(0,0)" y="47" opacity="1"><tspan>8</tspan></text></g><g class="highcharts-tooltip" display="none" style="cursor:default;padding:0;pointer-events:none;white-space:nowrap;" transform="translate(0,0)"><path fill="none" d="M 3.5 0.5 L 13.5 0.5 C 16.5 0.5 16.5 0.5 16.5 3.5 L 16.5 13.5 C 16.5 16.5 16.5 16.5 13.5 16.5 L 3.5 16.5 C 0.5 16.5 0.5 16.5 0.5 13.5 L 0.5 3.5 C 0.5 0.5 0.5 0.5 3.5 0.5"  stroke="black" stroke-opacity="0.049999999999999996" stroke-width="5" transform="translate(1, 1)"></path><path fill="none" d="M 3.5 0.5 L 13.5 0.5 C 16.5 0.5 16.5 0.5 16.5 3.5 L 16.5 13.5 C 16.5 16.5 16.5 16.5 13.5 16.5 L 3.5 16.5 C 0.5 16.5 0.5 16.5 0.5 13.5 L 0.5 3.5 C 0.5 0.5 0.5 0.5 3.5 0.5"  stroke="black" stroke-opacity="0.09999999999999999" stroke-width="3" transform="translate(1, 1)"></path><path fill="none" d="M 3.5 0.5 L 13.5 0.5 C 16.5 0.5 16.5 0.5 16.5 3.5 L 16.5 13.5 C 16.5 16.5 16.5 16.5 13.5 16.5 L 3.5 16.5 C 0.5 16.5 0.5 16.5 0.5 13.5 L 0.5 3.5 C 0.5 0.5 0.5 0.5 3.5 0.5"  stroke="black" stroke-opacity="0.15" stroke-width="1" transform="translate(1, 1)"></path><path fill="rgb(255, 255, 255)" fill-opacity=" 0.85" d="M 3.5 0.5 L 13.5 0.5 C 16.5 0.5 16.5 0.5 16.5 3.5 L 16.5 13.5 C 16.5 16.5 16.5 16.5 13.5 16.5 L 3.5 16.5 C 0.5 16.5 0.5 16.5 0.5 13.5 L 0.5 3.5 C 0.5 0.5 0.5 0.5 3.5 0.5"></path><text x="8" style="font-size:12px;color:#000000;fill:#000000;" y="20"></text></g><text x="590" text-anchor="end" style="cursor:pointer;color:#909090;font-size:9px;fill:#909090;" y="395">meta-chart.com</text></svg>